<svg xmlns="http://www.w3.org/2000/svg" viewBox="0 0 640 440" role="img" aria-labelledby="t"><title id="t">Caja surtida de postres ilustrada</title><rect width="640" height="440" fill="#F7E7D4"/><path d="M105 150h430v216H105z" fill="#D79367" stroke="#8C5138" stroke-width="10"/><path d="m105 150 77-73h276l77 73Z" fill="#EDC7A0" stroke="#8C5138" stroke-width="10"/><path d="M320 77v73" stroke="#8C5138" stroke-width="10"/><g><rect x="146" y="193" width="92" height="92" rx="16" fill="#FFF4E6"/><circle cx="192" cy="239" r="28" fill="#6A392A"/><path d="M174 231h36" stroke="#D8875F" stroke-width="9"/><rect x="274" y="193" width="92" height="92" rx="16" fill="#FFF4E6"/><path d="m292 259 28-49 28 49Z" fill="#F0D15D" stroke="#B08B25" stroke-width="6"/><rect x="402" y="193" width="92" height="92" rx="16" fill="#FFF4E6"/><circle cx="448" cy="239" r="28" fill="#E6AD55"/><path d="M426 239h44" stroke="#F9D58B" stroke-width="9"/><rect x="210" y="303" width="92" height="42" rx="14" fill="#FFF4E6"/><circle cx="256" cy="324" r="14" fill="#C8654A"/><rect x="338" y="303" width="92" height="42" rx="14" fill="#FFF4E6"/><circle cx="384" cy="324" r="14" fill="#6A392A"/></g></svg>
